<?xml version="1.0" encoding="UTF-8"?>
<svg version="1.1" xmlns="http://www.w3.org/2000/svg" width="294" height="98">
<path d="M0 0 C0 6.6 0 13.2 0 20 C-2.97 20.804375 -2.97 20.804375 -6 21.625 C-14.56755331 24.28839157 -20.57210575 27.93200922 -25.03125 35.87109375 C-28.55885377 43.62328751 -28.91954217 51.60775912 -26.05859375 59.64453125 C-22.76633535 66.89184594 -18.60829119 71.02565199 -11.6875 74.8125 C-3.08743601 77.58201213 5.13144126 77.88553719 13.3515625 73.84375 C21.3079185 69.05397047 25.41288839 62.80566127 27.875 53.9375 C28.431875 51.4934375 28.431875 51.4934375 29 49 C35.6 49 42.2 49 49 49 C49 63.76389387 44.93013019 74.05010896 35 85 C23.75619504 95.65317707 10.09222752 98.71573049 -4.91015625 98.3671875 C-17.92962296 97.68538813 -28.99109985 91.39748393 -37.90234375 81.9921875 C-48.10623203 69.1659259 -50.48664172 54.93869706 -49 39 C-47.05906633 27.51747919 -40.13066301 16.77664587 -31.0625 9.5625 C-20.90953358 2.70621391 -12.38365936 0 0 0 Z " fill="#F07D63" transform="translate(49,0)"/>
<path d="M0 0 C6.6 0 13.2 0 20 0 C20 6.6 20 13.2 20 20 C13.4 20 6.8 20 0 20 C0 13.4 0 6.8 0 0 Z " fill="#FFFFFF" transform="translate(76,0)"/>
<path d="M0 0 C2.5625 1.8125 2.5625 1.8125 4 4 C4 5.32 4 6.64 4 8 C1.625 8.1875 1.625 8.1875 -1 8 C-1.66 7.01 -2.32 6.02 -3 5 C-6.58357241 4.74984127 -6.58357241 4.74984127 -10 5 C-10.08086147 6.79093191 -10.13912702 8.58289628 -10.1875 10.375 C-10.22230469 11.37273438 -10.25710937 12.37046875 -10.29296875 13.3984375 C-10.19628906 14.25695313 -10.09960938 15.11546875 -10 16 C-7.23254916 18.30075262 -7.23254916 18.30075262 -4.375 17.75 C-3.59125 17.5025 -2.8075 17.255 -2 17 C-1.67 16.34 -1.34 15.68 -1 15 C0.65 15 2.3 15 4 15 C3.69209738 17.84809926 3.34521809 19.58286148 1.5 21.8125 C-2.30593187 23.62031764 -5.86581615 23.68534599 -10 23 C-12.87029869 21.20606332 -14.49131638 20.01736724 -16 17 C-16.41079745 12.09413049 -16.62569374 7.53294966 -14.75 2.9375 C-10.47613402 -1.79428019 -5.8391827 -1.48925944 0 0 Z " fill="#FFFFFF" transform="translate(138,21)"/>
<path d="M0 0 C13.43835616 -0.36986301 13.43835616 -0.36986301 15.921875 1.265625 C17.8154881 4.31187216 17.59699992 7.58955221 17 11 C15.5 13.5 15.5 13.5 13 15 C10.24158426 15.31584913 7.79398546 15.1862657 5 15 C5 17.64 5 20.28 5 23 C3.35 23 1.7 23 0 23 C0 15.41 0 7.82 0 0 Z M5 4 C5 6.31 5 8.62 5 11 C6.99954746 11.04254356 9.00041636 11.04080783 11 11 C12.28322547 9.9404123 12.28322547 9.9404123 12.125 7.5 C12.28322547 5.0595877 12.28322547 5.0595877 11 4 C9.00041636 3.95919217 6.99954746 3.95745644 5 4 Z " fill="#FFFFFF" transform="translate(164,21)"/>
<path d="M0 0 C2.51226303 2.40854575 2.97596173 3.73461744 3.29296875 7.234375 C3.25816406 8.39453125 3.22335938 9.5546875 3.1875 10.75 C3.16042969 11.92046875 3.13335937 13.0909375 3.10546875 14.296875 C3.07066406 15.18890625 3.03585938 16.0809375 3 17 C2.06414062 16.98710938 1.12828125 16.97421875 0.1640625 16.9609375 C-2.93665322 16.88339885 -2.93665322 16.88339885 -5.625 17.625 C-8 18 -8 18 -10.25 17.4375 C-12 16 -12 16 -12.9375 13.0625 C-13 10 -13 10 -12.0625 8.1875 C-8.83374633 6.32852061 -5.69614661 6.30296284 -2 6 C-2.33 5.34 -2.66 4.68 -3 4 C-7.455 4.495 -7.455 4.495 -12 5 C-11 1 -11 1 -9.375 -0.3125 C-5.92359234 -1.31159169 -3.45741245 -0.88006862 0 0 Z M-7 10 C-7 11.32 -7 12.64 -7 14 C-5.01508358 13.73323796 -5.01508358 13.73323796 -3 13 C-2.67 12.01 -2.34 11.02 -2 10 C-3.65 10 -5.3 10 -7 10 Z " fill="#FFFFFF" transform="translate(216,61)"/>
<path d="M0 0 C2.89282587 1.54284046 4.5579181 2.70087588 5.63671875 5.87109375 C6.25898258 9.41063747 6.20070996 11.51407061 4.8125 14.875 C2.87757787 17.14352939 1.86076556 18.18263841 -1 19 C-4.42573131 18.8572612 -6.47340665 18.33258527 -9.375 16.5 C-11.81341415 12.74859362 -11.88861164 9.34260644 -11 5 C-7.89186342 0.52062669 -5.43349789 -1.01878085 0 0 Z M-4 4 C-5.73666727 6.19832713 -5.73666727 6.19832713 -7 9 C-6.30514736 11.78223378 -6.30514736 11.78223378 -5 14 C-3.35 13.67 -1.7 13.34 0 13 C0.79953138 9.71303767 1.09658936 8.28976808 0 5 C-2.01508358 4.26676204 -2.01508358 4.26676204 -4 4 Z " fill="#FFFFFF" transform="translate(179,60)"/>
<path d="M0 0 C1.0828125 0.2475 1.0828125 0.2475 2.1875 0.5 C5.04641102 1.18638235 5.04641102 1.18638235 8.0625 0.375 C11 0 11 0 13.16796875 0.99609375 C15.4536651 3.49622643 15.41557722 5.28294142 15.3515625 8.59570312 C15.31804687 9.28599609 15.28453125 9.97628906 15.25 10.6875 C15.23195312 11.38939453 15.21390625 12.09128906 15.1953125 12.81445312 C15.14826213 14.54355436 15.07651873 16.27195205 15 18 C13.35 18 11.7 18 10 18 C10 13.71 10 9.42 10 5 C8.35 5 6.7 5 5 5 C4.67 9.29 4.34 13.58 4 18 C2.35 18 0.7 18 -1 18 C-1.02684312 15.18743719 -1.04676188 12.37512759 -1.0625 9.5625 C-1.07087891 8.76005859 -1.07925781 7.95761719 -1.08789062 7.13085938 C-1.0965143 5.08704779 -1.0522815 3.04316098 -1 1 C-0.67 0.67 -0.34 0.34 0 0 Z " fill="#FFFFFF" transform="translate(131,60)"/>
<path d="M0 0 C1.0828125 0.2475 1.0828125 0.2475 2.1875 0.5 C5.04641102 1.18638235 5.04641102 1.18638235 8.0625 0.375 C11 0 11 0 13.16796875 0.99609375 C15.4536651 3.49622643 15.41557722 5.28294142 15.3515625 8.59570312 C15.31804687 9.28599609 15.28453125 9.97628906 15.25 10.6875 C15.23195312 11.38939453 15.21390625 12.09128906 15.1953125 12.81445312 C15.14826213 14.54355436 15.07651873 16.27195205 15 18 C13.35 18 11.7 18 10 18 C10 13.71 10 9.42 10 5 C8.35 5.33 6.7 5.66 5 6 C4.67 9.96 4.34 13.92 4 18 C2.35 18 0.7 18 -1 18 C-1.02684312 15.18743719 -1.04676188 12.37512759 -1.0625 9.5625 C-1.07087891 8.76005859 -1.07925781 7.95761719 -1.08789062 7.13085938 C-1.0965143 5.08704779 -1.0522815 3.04316098 -1 1 C-0.67 0.67 -0.34 0.34 0 0 Z " fill="#FFFFFF" transform="translate(150,60)"/>
<path d="M0 0 C2.9375 1.375 2.9375 1.375 5 4 C5.87046411 8.59666133 5.84235437 12.52587986 3.5 16.625 C-0.05088183 18.577985 -3.03899289 18.78894803 -7 18 C-10.35257489 15.85091353 -10.89145337 14.42643319 -11.875 10.5625 C-12.00130762 6.96273284 -11.7715742 5.10025484 -10 2 C-6.2626144 -0.4915904 -4.42668417 -0.45793285 0 0 Z M-5 4 C-7.36692966 6.84826598 -7.36692966 6.84826598 -6.625 10.1875 C-6.41875 11.115625 -6.2125 12.04375 -6 13 C-4.34385343 13.38218767 -2.67542976 13.71395102 -1 14 C0.39681568 12.83016556 0.39681568 12.83016556 0.125 9.5625 C0.2526281 6.15894416 0.2526281 6.15894416 -1 4 C-2.32 4 -3.64 4 -5 4 Z " fill="#FFFFFF" transform="translate(156,26)"/>
<path d="M0 0 C2.05938216 1.57885966 2.84571211 2.69142423 4 5 C4.37960139 9.02377473 4.38341583 11.32164891 2.375 14.875 C-0.53847245 17.48179114 -2.1038517 18 -6 18 C-9.52906067 16.39588152 -10.82772908 15.25840638 -13 12 C-13.30104004 7.86069947 -13.54000454 4.42900613 -11 1 C-7.4367155 -1.7714435 -4.20758349 -0.99451973 0 0 Z M-6 3 C-8.32483785 4.88375675 -8.32483785 4.88375675 -8.1875 8 C-8.20079609 10.92386603 -8.20079609 10.92386603 -7 13 C-5.35 13 -3.7 13 -2 13 C-0.61874982 10.23749964 -0.80920694 8.05268901 -1 5 C-1.66 4.34 -2.32 3.68 -3 3 C-3.99 3 -4.98 3 -6 3 Z " fill="#FFFFFF" transform="translate(254,61)"/>
<path d="M0 0 C2.9375 1.375 2.9375 1.375 5 4 C5.87046411 8.59666133 5.84235437 12.52587986 3.5 16.625 C-0.05088183 18.577985 -3.03899289 18.78894803 -7 18 C-10.35257489 15.85091353 -10.89145337 14.42643319 -11.875 10.5625 C-12.00130762 6.96273284 -11.7715742 5.10025484 -10 2 C-6.2626144 -0.4915904 -4.42668417 -0.45793285 0 0 Z M-5 4 C-7.36692966 6.84826598 -7.36692966 6.84826598 -6.625 10.1875 C-6.41875 11.115625 -6.2125 12.04375 -6 13 C-4.34385343 13.38218767 -2.67542976 13.71395102 -1 14 C0.20561184 13.01732141 0.20561184 13.01732141 0.09765625 11.15234375 C0.08605469 10.42144531 0.07445312 9.69054687 0.0625 8.9375 C0.041875 7.638125 0.02125 6.33875 0 5 C-1.65 4.67 -3.3 4.34 -5 4 Z " fill="#FFFFFF" transform="translate(211,26)"/>
<path d="M0 0 C1.9375 1.4375 1.9375 1.4375 3 3 C3 3.66 3 4.32 3 5 C-0.19902639 5.08886184 -2.92677456 4.91058531 -6 4 C-3.08596738 5.94268841 -0.14191424 7.46395304 3 9 C2.67 11.31 2.34 13.62 2 16 C-2.07190219 18.03595109 -4.60241389 18.14719638 -9 17 C-9.99 16.34 -10.98 15.68 -12 15 C-12 14.01 -12 13.02 -12 12 C-10.125 11.375 -10.125 11.375 -8 11 C-7.34 11.66 -6.68 12.32 -6 13 C-5.01 13 -4.02 13 -3 13 C-2.67 12.34 -2.34 11.68 -2 11 C-4.01822917 10.54427083 -6.03645833 10.08854167 -8.0546875 9.6328125 C-10 9 -10 9 -12 7 C-11.875 4 -11.875 4 -11 1 C-7.65602802 -1.95812906 -4.08733408 -0.96609715 0 0 Z " fill="#FFFFFF" transform="translate(291,61)"/>
<path d="M0 0 C2.475 0.495 2.475 0.495 5 1 C6.010625 0.79375 7.02125 0.5875 8.0625 0.375 C11 0 11 0 13.16796875 0.99609375 C15.4536651 3.49622643 15.41557722 5.28294142 15.3515625 8.59570312 C15.31804687 9.28599609 15.28453125 9.97628906 15.25 10.6875 C15.23195313 11.38939453 15.21390625 12.09128906 15.1953125 12.81445312 C15.14826213 14.54355436 15.07651873 16.27195205 15 18 C13.35 18 11.7 18 10 18 C10 13.71 10 9.42 10 5 C8.35 5 6.7 5 5 5 C4.67 9.29 4.34 13.58 4 18 C2.68 18 1.36 18 0 18 C0 12.06 0 6.12 0 0 Z " fill="#FFFFFF" transform="translate(261,60)"/>
<path d="M0 0 C1.65 0 3.3 0 5 0 C6.32 3.3 7.64 6.6 9 10 C10.32 6.7 11.64 3.4 13 0 C14.32 0 15.64 0 17 0 C16.42934122 6.41991126 14.32655091 12.01589463 12 18 C10.02 18 8.04 18 6 18 C4.99600476 15.37646482 3.99665555 12.75132205 3 10.125 C2.57074219 9.00544922 2.57074219 9.00544922 2.1328125 7.86328125 C0 2.2265625 0 2.2265625 0 0 Z " fill="#FFFFFF" transform="translate(185,60)"/>
<path d="M0 0 C1.65 0 3.3 0 5 0 C5 1.32 5 2.64 5 4 C5.99 4 6.98 4 8 4 C8 5.32 8 6.64 8 8 C7.01 8 6.02 8 5 8 C5 11.3 5 14.6 5 18 C5.99 18 6.98 18 8 18 C8.33 19.32 8.66 20.64 9 22 C5.625 22.125 5.625 22.125 2 22 C0 20 0 20 -0.1953125 17.1796875 C-0.17210937 16.08914062 -0.14890625 14.99859375 -0.125 13.875 C-0.10695312 12.77929688 -0.08890625 11.68359375 -0.0703125 10.5546875 C-0.04710937 9.71164063 -0.02390625 8.86859375 0 8 C-0.66 8 -1.32 8 -2 8 C-2 6.68 -2 5.36 -2 4 C-1.34 4 -0.68 4 0 4 C0 2.68 0 1.36 0 0 Z " fill="#FFFFFF" transform="translate(220,22)"/>
<path d="M0 0 C1.65 0 3.3 0 5 0 C5 1.32 5 2.64 5 4 C5.99 4 6.98 4 8 4 C8 5.32 8 6.64 8 8 C7.01 8 6.02 8 5 8 C5 11.3 5 14.6 5 18 C5.99 18 6.98 18 8 18 C8 19.32 8 20.64 8 22 C5.125 22.125 5.125 22.125 2 22 C0 20 0 20 -0.1953125 17.1796875 C-0.17210937 16.08914062 -0.14890625 14.99859375 -0.125 13.875 C-0.10695312 12.77929688 -0.08890625 11.68359375 -0.0703125 10.5546875 C-0.04710937 9.71164063 -0.02390625 8.86859375 0 8 C-0.66 8 -1.32 8 -2 8 C-2 6.68 -2 5.36 -2 4 C-1.34 4 -0.68 4 0 4 C0 2.68 0 1.36 0 0 Z " fill="#FFFFFF" transform="translate(223,56)"/>
<path d="M0 0 C1.65 0 3.3 0 5 0 C5 7.59 5 15.18 5 23 C3.35 23 1.7 23 0 23 C0 15.41 0 7.82 0 0 Z " fill="#FFFFFF" transform="translate(122,55)"/>
<path d="M0 0 C1.65 0 3.3 0 5 0 C5 7.59 5 15.18 5 23 C3.35 23 1.7 23 0 23 C0 15.41 0 7.82 0 0 Z " fill="#FFFFFF" transform="translate(192,21)"/>
<path d="M0 0 C1.65 0 3.3 0 5 0 C5 5.94 5 11.88 5 18 C3.35 18 1.7 18 0 18 C0 12.06 0 6.12 0 0 Z " fill="#FFFFFF" transform="translate(184,26)"/>
<path d="M0 0 C1.32 0 2.64 0 4 0 C4 5.94 4 11.88 4 18 C2.68 18 1.36 18 0 18 C0 12.06 0 6.12 0 0 Z " fill="#FFFFFF" transform="translate(234,60)"/>
<path d="M0 0 C1.65 0.33 3.3 0.66 5 1 C4.67 2.32 4.34 3.64 4 5 C2.35 4.67 0.7 4.34 -1 4 C-0.67 2.68 -0.34 1.36 0 0 Z " fill="#FFFFFF" transform="translate(234,54)"/>
<path d="M0 0 C2.0625 0.4375 2.0625 0.4375 4 1 C4 2.32 4 3.64 4 5 C2.68 5.33 1.36 5.66 0 6 C-0.38218767 4.34385343 -0.71395102 2.67542976 -1 1 C-0.67 0.67 -0.34 0.34 0 0 Z " fill="#FFFFFF" transform="translate(185,19)"/>
</svg>
